<?xml version="1.0" standalone="no"?>
<!DOCTYPE svg PUBLIC "-//W3C//DTD SVG 20010904//EN"
 "http://www.w3.org/TR/2001/REC-SVG-20010904/DTD/svg10.dtd">
<svg version="1.0" xmlns="http://www.w3.org/2000/svg"
 width="400.000000pt" height="400.000000pt" viewBox="0 0 400.000000 400.000000"
 preserveAspectRatio="xMidYMid meet">

<g transform="translate(0.000000,400.000000) scale(0.100000,-0.100000)"
fill="#1BB8D8" stroke="none">
<path d="M0 2000 l0 -2000 2000 0 2000 0 0 2000 0 2000 -2000 0 -2000 0 0
-2000z m960 1005 l0 -55 -80 0 -80 0 0 -224 0 -224 -56 -4 c-31 -1 -58 -1 -60
1 -2 2 -4 105 -4 228 l0 223 -80 0 -80 0 0 55 0 55 220 0 220 0 0 -55z m300
-50 l0 -105 125 0 125 0 0 105 0 105 60 0 60 0 0 -280 0 -280 -60 0 -60 0 0
120 0 120 -125 0 -125 0 0 -120 0 -120 -60 0 -60 0 0 280 0 280 60 0 60 0 0
-105z m928 53 l-3 -53 -130 -5 -130 -5 0 -50 0 -50 123 -3 122 -3 0 -54 0 -55
-125 0 -125 0 0 -60 0 -60 140 0 140 0 0 -55 0 -55 -195 0 -195 0 0 280 0 280
191 0 190 0 -3 -52z m1112 26 c86 -41 157 -137 167 -228 7 -58 -20 -145 -60
-198 -21 -27 -56 -55 -96 -75 l-63 -33 -317 0 c-372 0 -385 2 -467 85 -147
147 -91 387 108 456 48 17 83 19 368 16 297 -2 318 -3 360 -23z m-2556 -816
c73 -211 109 -308 115 -303 3 3 33 84 66 178 l61 172 92 3 92 3 0 -281 0 -280
-60 0 -60 0 -2 213 -3 212 -44 -130 c-24 -71 -57 -167 -73 -212 l-30 -83 -46
0 -47 1 -70 212 -70 212 -3 -212 -2 -213 -60 0 -60 0 0 280 0 280 93 0 92 0
19 -52z m982 33 c182 -83 227 -317 88 -456 -136 -136 -369 -95 -450 80 -69
147 14 340 166 386 49 14 153 9 196 -10z m422 -83 c22 -57 52 -138 67 -180 15
-43 31 -78 35 -78 7 0 90 206 128 318 l14 42 64 0 64 0 -24 -62 c-14 -35 -64
-160 -113 -278 l-88 -215 -50 0 -50 0 -107 265 c-59 146 -107 271 -107 278 -1
8 18 12 63 12 l63 0 41 -102z m685 90 c2 -7 4 -132 3 -278 l-1 -265 -57 -3
-58 -3 0 281 0 280 54 0 c34 0 56 -5 59 -12z m617 -38 l0 -49 -127 -3 -128 -3
-3 -57 -3 -58 126 0 125 0 0 -49 c0 -35 -4 -51 -16 -55 -9 -3 -65 -6 -125 -6
l-109 0 0 -60 0 -60 141 0 140 0 -3 -52 -3 -53 -195 0 -195 0 -3 265 c-1 146
0 270 3 277 3 10 49 13 190 13 l185 0 0 -50z m-1459 -761 c60 -28 118 -89 144
-152 20 -47 19 -141 -1 -200 -20 -59 -89 -131 -152 -160 -47 -22 -52 -22 -622
-22 l-575 0 -57 28 c-102 50 -158 143 -158 261 1 123 82 227 210 267 14 4 279
7 590 6 l565 -2 56 -26z m597 21 c90 -12 146 -36 194 -85 92 -93 91 -280 -2
-375 -21 -21 -51 -45 -68 -54 -55 -29 -154 -46 -264 -46 l-108 0 0 285 0 285
88 0 c48 0 120 -5 160 -10z m758 -6 c18 -2 47 -17 65 -33 27 -24 33 -37 37
-83 4 -47 1 -58 -22 -85 -15 -18 -36 -35 -46 -38 -29 -9 -24 -18 21 -39 49
-22 70 -53 76 -109 6 -56 -25 -104 -91 -136 -42 -21 -66 -25 -197 -29 l-149
-5 0 280 c0 154 3 283 7 286 7 7 243 0 299 -9z"/>
<path d="M2457 1365 c-4 -9 -7 -86 -7 -172 l0 -155 89 4 c71 2 95 7 117 24 47
35 67 70 72 128 9 109 -61 175 -193 184 -61 4 -73 2 -78 -13z"/>
<path d="M3160 1325 l0 -65 68 0 c59 0 72 3 90 23 28 30 28 52 -3 82 -21 22
-33 25 -90 25 l-65 0 0 -65z"/>
<path d="M3162 1093 l3 -68 50 -3 c99 -7 157 30 142 91 -9 33 -46 47 -128 47
l-70 0 3 -67z"/>
</g>
</svg>
